<svg width="299" height="580" viewBox="0 0 299 580" xmlns="http://www.w3.org/2000/svg"><path d="M2.118 395.205c0-50.427 0-100.857.003-151.284 0-.947.064-1.75-1.126-2.402-.626-.343-.924-1.552-.928-2.37-.057-12.42-.039-24.84-.039-37.263 0-1.653-.089-3.31.05-4.954.057-.665.423-1.577.98-1.88.932-.506 1.08-1.072 1.077-1.926-.024-8.636-.017-17.272-.01-25.908 0-.864-.068-1.494-1.073-2.098-.665-.4-.981-1.64-.981-2.505C.017 145.45.028 128.286.028 111.12c0-8.102.014-16.207-.014-24.308C.01 85.558.202 84.55 1.57 83.85c.398-.205.526-1.072.53-1.634.05-14.445.014-28.892.117-43.337.043-5.866.348-11.741 2.374-17.39C8.507 10.573 17.071 4.352 29.336 1.998 37.726.386 46.266.152 54.787.13c43.65-.102 87.3-.118 130.951-.13 19.602 0 39.208 0 58.81.14 8.163.06 16.34.271 24.4 1.74 15.793 2.872 25.246 11.955 27.087 26.435.604 4.753.81 9.57.82 14.358.104 37.687.114 75.375.154 113.063 0 .981-.192 1.95 1.162 2.555.486.218.792 1.174.796 1.794.042 14.234.046 28.467 0 42.7-.004.617-.324 1.532-.828 1.788-1.255.643-1.138 1.558-1.138 2.559 0 86.464-.007 172.925-.01 259.39 0 22.229.064 44.458-.04 66.684-.031 6.915.143 13.878-1.662 20.685-2.879 10.862-10.196 18.177-21.884 21.903-6.926 2.21-14.158 3.256-21.436 3.425-18.348.426-36.703.672-55.058.723-36.6.106-73.203.039-109.803.016-2.302 0-4.602-.304-6.905-.313-3.777-.013-7.551.163-11.329.144-5.977-.032-11.958-.029-17.925-.279-7.455-.313-14.883-1.017-22.115-2.801-15.06-3.72-24.02-12.919-25.87-26.9-.63-4.75-.81-9.57-.818-14.36-.05-46.743-.028-93.495-.028-140.244zm289.711-104.587c0-77.029 0-154.057-.016-231.086 0-2.661-.124-5.329-.37-7.98-.76-8.227-7.04-14.87-15.96-16.495-3.564-.649-7.292-.78-10.945-.783-76.7-.042-153.4-.03-230.1-.02-2.718 0-5.447.122-8.155.336-9.133.726-16.5 6.423-18.263 14.438-.693 3.16-.845 6.458-.845 9.695-.04 154.483-.036 308.969-.018 463.452 0 2.395.142 4.794.366 7.18.771 8.23 7.047 14.873 15.963 16.495 3.565.65 7.292.78 10.946.783 76.7.042 153.4.03 230.1.02 2.718 0 5.447-.122 8.155-.336 9.13-.723 16.51-6.423 18.255-14.441.711-3.266.85-6.672.85-10.015.046-77.08.037-154.16.037-231.243z" fill="#171717" fill-rule="nonzero"/></svg>