<svg width="297" height="604" xmlns="http://www.w3.org/2000/svg"><defs><linearGradient x1="50%" y1=".669%" x2="50%" y2="99.679%" id="a"><stop offset="0%"/><stop stop-color="#010101" offset="100%"/></linearGradient></defs><path d="M253 0H44C19.7 0 0 19.7 0 44v516c0 24.3 19.7 44 44 44h209c24.3 0 44-19.7 44-44V44c0-24.3-19.7-44-44-44zm26 557.5c0 15.5-12.5 28-28 28H46c-15.5 0-28-12.5-28-28v-511c0-15.5 12.5-28 28-28h26.5l1 8.7c.9 7.6 7.3 13.3 14.9 13.3h121.3c7.6 0 14-5.7 14.9-13.3l1-8.7H251c15.5 0 28 12.5 28 28v511z" fill="url(#a)" fill-rule="nonzero"/></svg>
